<?xml version="1.0" standalone="no"?>
<!DOCTYPE svg PUBLIC "-//W3C//DTD SVG 20010904//EN"
 "http://www.w3.org/TR/2001/REC-SVG-20010904/DTD/svg10.dtd">
<svg version="1.0" xmlns="http://www.w3.org/2000/svg"
 width="700.000000pt" height="700.000000pt" viewBox="0 0 700.000000 700.000000"
 preserveAspectRatio="xMidYMid meet">
<metadata>
Created by potrace 1.11, written by Peter Selinger 2001-2013
</metadata>
<g transform="translate(0.000000,700.000000) scale(0.100000,-0.100000)"
fill="#000000" stroke="none">
<path d="M895 6975 c-424 -89 -751 -422 -830 -845 -3 -13 -8 -42 -11 -65 -10
-55 -11 -4620 -2 -4718 43 -458 351 -813 817 -940 75 -21 91 -21 1436 -24 748
-2 1420 -4 1493 -6 l133 -2 -90 -92 c-94 -96 -107 -120 -98 -181 13 -74 98
-119 169 -89 15 7 87 71 160 143 l133 130 170 47 170 46 600 4 c330 2 616 7
635 10 368 72 669 315 806 650 25 63 51 149 59 200 3 15 8 42 11 60 3 17 7
229 8 469 l2 438 117 117 c152 153 169 181 169 287 0 75 -33 126 -164 258
l-122 123 -1 1525 c-1 839 -4 1539 -8 1555 -4 17 -8 41 -11 55 -32 193 -139
399 -285 547 -157 161 -360 268 -581 307 -74 13 -386 15 -2430 15 l-2345 0
-110 -24z"/>
</g>
</svg>
